<?xml version="1.0" encoding="UTF-8"?>
<svg width="629px" height="170px" viewBox="0 0 629 170" version="1.1" xmlns="http://www.w3.org/2000/svg" xmlns:xlink="http://www.w3.org/1999/xlink">
    <!-- Generator: Sketch 41 (35326) - http://www.bohemiancoding.com/sketch -->
    <title>vexrob_logo_rev</title>
    <desc>Created with Sketch.</desc>
    <defs>
        <linearGradient x1="11.6168469%" y1="-69.1617263%" x2="134.090131%" y2="175.880958%" id="linearGradient-1">
            <stop stop-color="#E75361" offset="0%"></stop>
            <stop stop-color="#D63C62" offset="50%"></stop>
            <stop stop-color="#C92A62" offset="100%"></stop>
        </linearGradient>
        <linearGradient x1="50%" y1="0%" x2="50%" y2="100%" id="linearGradient-2">
            <stop stop-color="#FFFFFF" offset="0%"></stop>
            <stop stop-color="#FFFFFF" offset="100%"></stop>
        </linearGradient>
    </defs>
    <g id="Page-1" stroke="none" stroke-width="1" fill="none" fill-rule="evenodd">
        <g id="Artboard" transform="translate(-136.000000, -116.000000)">
            <g id="vexrob_logo_rev" transform="translate(136.000000, 116.000000)">
                <polyline id="Fill-1" fill="#2B2C2E" points="238.58 117.269 211.84 52.691 204.904 52.691 235.544 126.633 241.609 126.633 272.252 52.691 265.445 52.691 238.58 117.269"></polyline>
                <path d="M313.389,58.033 C317.105,58.033 320.589,58.331 323.746,58.921 C326.839,59.499 329.529,60.477 331.739,61.825 C333.901,63.147 335.605,64.91 336.803,67.07 C338.005,69.231 338.614,71.933 338.614,75.1 L338.614,85.957 L288.296,85.957 L288.296,75.1 C288.296,72.096 288.885,69.477 290.047,67.315 C291.204,65.163 292.883,63.402 295.041,62.084 C297.261,60.73 299.937,59.708 302.997,59.044 C306.101,58.374 309.597,58.033 313.389,58.033 L313.389,58.033 Z M335.773,56.94 C332.957,55.109 329.574,53.754 325.717,52.911 C321.908,52.079 317.76,51.658 313.389,51.658 C308.834,51.658 304.613,52.124 300.845,53.047 C297.022,53.98 293.683,55.425 290.916,57.345 C288.115,59.289 285.891,61.764 284.31,64.701 C282.724,67.648 281.92,71.146 281.92,75.1 L281.92,103.836 C281.92,108.053 282.769,111.73 284.446,114.766 C286.119,117.793 288.433,120.29 291.325,122.19 C294.186,124.064 297.544,125.464 301.306,126.345 C305.042,127.223 309.108,127.669 313.389,127.669 C321.195,127.669 327.774,126.393 332.941,123.873 C338.219,121.302 341.814,117.514 343.629,112.614 L343.947,111.753 L338.176,108.676 L337.767,109.827 C336.384,113.728 333.728,116.535 329.646,118.412 C325.488,120.323 320.019,121.293 313.389,121.293 C309.683,121.293 306.232,120.952 303.127,120.282 C300.064,119.618 297.39,118.576 295.183,117.183 C293.013,115.818 291.305,114.051 290.1,111.925 C288.904,109.81 288.296,107.176 288.296,104.095 L288.296,92.332 L344.989,92.332 L344.989,75.1 C344.989,70.887 344.161,67.233 342.531,64.242 C340.903,61.256 338.63,58.8 335.773,56.94 L335.773,56.94 Z" id="Fill-2" fill="#2B2C2E"></path>
                <polyline id="Fill-3" fill="#2B2C2E" points="411.485 52.691 388.329 84.199 365.047 52.691 357.389 52.691 384.441 89.473 357.401 126.633 365.181 126.633 388.331 95.004 411.482 126.633 419.258 126.633 392.354 89.473 419.404 52.691 411.485 52.691"></polyline>
                <path d="M440.302,57.396 C434.664,61.124 431.805,66.908 431.805,74.583 L431.805,126.633 L438.181,126.633 L438.181,74.583 C438.181,71.674 438.767,69.171 439.92,67.142 C441.073,65.112 442.733,63.435 444.857,62.152 C447.031,60.841 449.682,59.86 452.741,59.242 C455.844,58.611 459.39,58.292 463.274,58.292 L469.245,58.292 L469.245,51.915 L463.274,51.915 C453.532,51.915 445.802,53.758 440.302,57.396" id="Fill-4" fill="#2B2C2E"></path>
                <path d="M512.848,121.293 C509.229,121.293 505.821,120.952 502.715,120.282 C499.661,119.62 496.993,118.56 494.782,117.125 C492.607,115.717 490.871,113.901 489.621,111.724 C488.382,109.568 487.755,106.915 487.755,103.836 L487.755,75.1 C487.755,72.108 488.382,69.498 489.621,67.342 C490.865,65.177 492.593,63.408 494.759,62.084 C496.977,60.73 499.653,59.708 502.715,59.044 C505.819,58.374 509.229,58.033 512.848,58.033 C516.468,58.033 519.877,58.374 522.981,59.044 C526.045,59.708 528.746,60.732 531.009,62.088 C533.216,63.414 534.963,65.182 536.205,67.342 C537.444,69.498 538.071,72.108 538.071,75.1 L538.071,103.836 C538.071,106.915 537.444,109.568 536.205,111.724 C534.957,113.896 533.202,115.711 530.986,117.121 C528.732,118.558 526.037,119.62 522.981,120.282 C519.875,120.952 516.468,121.293 512.848,121.293 L512.848,121.293 Z M535.38,57.341 C532.569,55.423 529.208,53.978 525.394,53.047 C521.622,52.124 517.401,51.658 512.848,51.658 C508.294,51.658 504.072,52.124 500.301,53.047 C496.482,53.98 493.142,55.425 490.373,57.345 C487.574,59.287 485.352,61.762 483.77,64.701 C482.183,67.648 481.379,71.146 481.379,75.1 L481.379,103.836 C481.379,107.876 482.183,111.438 483.768,114.425 C485.348,117.409 487.57,119.908 490.373,121.848 C493.136,123.768 496.471,125.238 500.29,126.212 C504.068,127.178 508.294,127.669 512.848,127.669 C517.401,127.669 521.626,127.178 525.406,126.212 C529.219,125.238 532.575,123.772 535.383,121.855 C538.227,119.912 540.474,117.413 542.058,114.425 C543.645,111.436 544.448,107.874 544.448,103.836 L544.448,75.1 C544.448,71.148 543.643,67.65 542.056,64.701 C540.469,61.759 538.225,59.283 535.38,57.341 L535.38,57.341 Z" id="Fill-5" fill="#2B2C2E"></path>
                <path d="M597.11,121.293 C593.32,121.293 589.823,120.952 586.718,120.282 C583.658,119.62 581.01,118.578 578.844,117.187 C576.713,115.822 575.023,114.051 573.821,111.925 C572.625,109.81 572.016,107.176 572.016,104.095 L572.016,75.1 C572.016,72.096 572.606,69.477 573.767,67.315 C574.92,65.165 576.602,63.404 578.762,62.084 C580.98,60.73 583.656,59.708 586.718,59.044 C589.821,58.374 593.318,58.033 597.11,58.033 C600.661,58.033 604.04,58.311 607.152,58.857 C610.206,59.396 612.894,60.354 615.143,61.702 C617.354,63.028 619.126,64.799 620.409,66.966 C621.685,69.122 622.332,71.859 622.332,75.1 L622.332,103.836 C622.332,106.836 621.742,109.455 620.581,111.621 C619.418,113.787 617.749,115.596 615.622,117.002 C613.449,118.437 610.779,119.518 607.686,120.219 C604.537,120.932 600.978,121.293 597.11,121.293 L597.11,121.293 Z M626.25,64.113 C624.62,61.124 622.347,58.668 619.494,56.81 C616.674,54.977 613.285,53.641 609.425,52.844 C605.625,52.056 601.483,51.658 597.11,51.658 C585.875,51.658 577.451,54.212 572.016,59.26 L572.016,30.428 L565.641,30.428 L565.641,104.095 C565.641,111.936 568.559,117.91 574.316,121.853 C579.946,125.712 587.614,127.669 597.11,127.669 C601.654,127.669 605.894,127.202 609.717,126.282 C613.583,125.349 616.968,123.879 619.782,121.914 C622.628,119.927 624.852,117.403 626.392,114.412 C627.931,111.426 628.71,107.866 628.71,103.836 L628.71,75.1 C628.71,70.801 627.882,67.103 626.25,64.113 L626.25,64.113 Z" id="Fill-6" fill="#2B2C2E"></path>
                <rect id="Rectangle" fill="url(#linearGradient-1)" x="0" y="0" width="169.970001" height="169.970001" rx="12"></rect>
                <path d="M92.882,37.959 L92.882,47.644 C92.882,47.96 92.836,48.419 92.75,49.021 C92.683,49.492 92.432,49.989 92.006,50.503 C91.566,51.033 90.809,51.516 89.754,51.942 C88.67,52.379 87.048,52.603 84.937,52.603 C82.858,52.603 81.263,52.381 80.192,51.942 C79.155,51.518 78.405,51.035 77.962,50.501 C77.535,49.989 77.285,49.492 77.219,49.021 C77.133,48.419 77.086,47.96 77.086,47.644 L77.086,37.959 C77.086,37.614 77.132,37.139 77.219,36.533 C77.285,36.068 77.532,35.583 77.955,35.086 C78.393,34.572 79.143,34.101 80.183,33.688 C81.259,33.263 82.858,33.047 84.937,33.047 C87.048,33.047 88.673,33.263 89.766,33.69 C90.822,34.103 91.578,34.574 92.013,35.084 C92.435,35.581 92.684,36.07 92.75,36.535 C92.837,37.139 92.882,37.614 92.882,37.959 L92.882,37.959 Z M94.429,30.377 C92.176,28.762 88.982,27.944 84.937,27.944 C80.881,27.944 77.699,28.782 75.478,30.437 C73.159,32.161 71.982,34.687 71.982,37.945 L71.982,47.609 C71.982,50.965 73.16,53.532 75.482,55.24 C77.704,56.878 80.885,57.709 84.937,57.709 C88.986,57.709 92.181,56.88 94.433,55.246 C96.792,53.536 97.987,50.967 97.987,47.609 L97.987,37.945 C97.987,34.621 96.79,32.075 94.429,30.377 L94.429,30.377 Z" id="Fill-10" fill="#FFFFFF"></path>
                <polyline id="Fill-11" fill="#FFFFFF" points="36.438 32.583 40.5 28.52 84.769 76.425 129.466 28.52 133.531 32.583 87.55 81.772 81.777 81.772 36.438 32.583"></polyline>
                <polyline id="Fill-12" fill="url(#linearGradient-2)" points="133.531 138.024 129.469 142.087 85.2 94.183 40.503 142.087 36.438 138.024 82.419 88.836 88.192 88.836 133.531 138.024"></polyline>
            </g>
        </g>
    </g>
</svg>